<?xml version="1.0" encoding="UTF-8"?>
<svg version="1.1" xmlns="http://www.w3.org/2000/svg" width="1024" height="1024">
<path d="M0 0 C337.92 0 675.84 0 1024 0 C1024 337.92 1024 675.84 1024 1024 C686.08 1024 348.16 1024 0 1024 C0 686.08 0 348.16 0 0 Z " fill="#FDFEFE" transform="translate(0,0)"/>
<path d="M0 0 C1.45714994 -0.0049005 2.914296 -0.01109562 4.37143558 -0.01845789 C8.3396684 -0.0347343 12.30770096 -0.03256481 16.27595532 -0.02708292 C20.56997064 -0.02439733 24.8639344 -0.03897322 29.15792847 -0.05117798 C37.55768147 -0.07217164 45.95736536 -0.07677625 54.3571415 -0.07499009 C61.19114581 -0.07367913 68.02512868 -0.07750364 74.85912895 -0.08491516 C76.83257752 -0.08701452 78.8060261 -0.08911212 80.77947468 -0.09120798 C81.76193564 -0.09225151 82.7443966 -0.09329504 83.7566291 -0.09437019 C102.31416445 -0.11324893 120.87166021 -0.11222995 139.42920118 -0.10540086 C156.37015804 -0.09983013 173.31096346 -0.12063501 190.25188494 -0.15376133 C207.68171735 -0.18757678 225.11147737 -0.2026567 242.54134315 -0.1980443 C252.31276992 -0.19580715 262.08405682 -0.20093141 271.8554554 -0.22593689 C280.17697768 -0.24705203 288.49828344 -0.25044173 296.81981493 -0.2316373 C301.05736055 -0.22254102 305.29450361 -0.22114608 309.53201675 -0.24199295 C338.50089696 -0.37480766 362.78154126 2.23972653 385.13206482 22.39440918 C385.88745544 23.0569873 386.64284607 23.71956543 387.42112732 24.40222168 C397.17416037 33.48494318 403.669017 44.91938396 408.13206482 57.39440918 C408.62899841 58.74019043 408.62899841 58.74019043 409.13597107 60.11315918 C411.95512702 69.39979053 412.42319817 78.24609045 412.39949036 87.91503906 C412.40323259 89.37102286 412.40783639 90.82700465 412.413221 92.2829833 C412.42539607 96.2618192 412.42519704 100.24057066 412.42283225 104.21942091 C412.42242268 108.51957447 412.43347676 112.81970147 412.44294739 117.11984253 C412.45952928 125.53737223 412.4650557 133.95487391 412.46617214 142.37241858 C412.46712416 149.21985597 412.47124211 156.06728415 412.47757339 162.91471863 C412.49517982 182.35394494 412.50441346 201.79314921 412.50291245 221.23238355 C412.50283253 222.27939693 412.50275262 223.32641031 412.50267029 224.40515137 C412.50258853 225.45345239 412.50250677 226.50175342 412.50242253 227.58182114 C412.50161028 244.55662841 412.52073406 261.5313468 412.54894702 278.50612837 C412.57772703 295.96070973 412.59148444 313.41524783 412.58975947 330.8698535 C412.58909723 340.65912855 412.59451623 350.44831049 412.61611557 360.23756409 C412.63439504 368.5752915 412.63861962 376.9128836 412.62509672 385.25062245 C412.61860042 389.49797549 412.61832767 393.74506948 412.63580322 397.99239731 C412.79305545 438.74166527 412.79305545 438.74166527 404.38206482 453.83190918 C404.0369989 454.48183838 403.69193298 455.13176758 403.33641052 455.8013916 C395.43012457 470.32706066 384.64737276 482.31953948 370.13206482 490.39440918 C369.10854919 491.00155762 368.08503357 491.60870605 367.03050232 492.23425293 C347.65945416 502.96318241 325.83903393 501.99386967 304.34480095 501.94662595 C300.08020645 501.9416352 295.815695 501.95978827 291.5511322 501.97470093 C283.22384355 502.00004222 274.89668432 502.00380179 266.56936359 501.9991004 C259.79463588 501.99551752 253.01994708 501.99906851 246.245224 502.00754929 C245.2767811 502.00873966 244.3083382 502.00993004 243.31054854 502.01115649 C241.34246985 502.01358027 239.37439115 502.01600854 237.40631247 502.01844124 C219.00134013 502.04013222 200.59644131 502.03589506 182.1914649 502.02367155 C165.39318634 502.01333139 148.59513966 502.03585948 131.79690695 502.07386799 C114.49792549 502.11270602 97.19905353 502.12912305 79.90002823 502.12162149 C70.20804959 502.1178106 60.51626837 502.12264396 50.82432556 502.15105057 C42.57613293 502.17498379 34.32825937 502.1775704 26.08006191 502.15347023 C21.88088526 502.14176762 17.68229069 502.13928185 13.4831543 502.16347504 C-15.60974191 502.31953481 -41.18014564 498.34539051 -62.86793518 477.39440918 C-79.81660927 459.46963345 -87.36688284 435.80881195 -87.25561523 411.50665283 C-87.25979925 410.05958942 -87.26528257 408.6125293 -87.27193505 407.16547513 C-87.28626878 403.22983787 -87.28218318 399.29441218 -87.27476823 395.35876393 C-87.27000857 391.09821106 -87.28257107 386.83770215 -87.29278564 382.5771637 C-87.30992526 374.24572478 -87.31082363 365.91436145 -87.30557274 357.58290949 C-87.30152029 350.80564417 -87.30298734 344.02840106 -87.308321 337.25113678 C-87.30906942 336.28407886 -87.30981784 335.31702093 -87.31058894 334.32065822 C-87.31212053 332.35563586 -87.31365888 330.3906135 -87.31520391 328.42559114 C-87.32891179 310.02405279 -87.32350362 291.62255702 -87.3120187 273.22101966 C-87.30209108 256.41782543 -87.31502192 239.61474141 -87.33895289 222.81156418 C-87.36338651 205.5240929 -87.37294112 188.23667285 -87.36630017 170.94918466 C-87.36281703 161.25722566 -87.36497982 151.56535132 -87.38255119 141.87340546 C-87.39732671 133.62177216 -87.39783925 125.37028313 -87.38048028 117.11865249 C-87.37201118 112.91583192 -87.36971943 108.71326847 -87.38513184 104.51046181 C-87.49327928 72.74246353 -84.21896359 47.11806038 -60.86793518 23.39440918 C-44.35037514 6.84272195 -22.91659392 -0.09670869 0 0 Z " fill="#FDFDFD" transform="translate(348.86793518066406,265.6055908203125)"/>
<path d="M0 0 C1.08401796 -0.00467997 1.08401796 -0.00467997 2.18993527 -0.00945449 C4.6119817 -0.01743299 7.03377749 -0.01111145 9.45582581 -0.00482178 C11.19212491 -0.00753173 12.92842286 -0.01109269 14.66471863 -0.01544189 C19.38163781 -0.02456833 24.09846961 -0.0210204 28.81539035 -0.01468372 C33.7498236 -0.00962425 38.68424932 -0.01431511 43.61868286 -0.01745605 C51.90669601 -0.02109619 60.19467353 -0.0162957 68.48268127 -0.0067749 C78.06548242 0.00410615 87.64819843 0.0005868 97.2309975 -0.01042771 C105.45614871 -0.0195035 113.68127428 -0.02078432 121.90642887 -0.01555037 C126.81995194 -0.01243183 131.73343499 -0.01201812 136.64695549 -0.01862335 C141.26721175 -0.02440028 145.88735828 -0.02039351 150.50760269 -0.00883484 C152.20352687 -0.00618997 153.89946028 -0.00695041 155.59538078 -0.01136017 C157.91006608 -0.01682396 160.22439962 -0.00997144 162.5390625 0 C164.48224444 0.00113108 164.48224444 0.00113108 166.46468258 0.002285 C171.38624087 0.37002366 174.91779435 2.04789992 178.89552307 4.87896729 C179.54649963 5.32498291 180.1974762 5.77099854 180.86817932 6.23052979 C186.68079887 12.21648789 187.41561807 18.77622821 187.34095764 26.80499268 C187.3471976 27.84340585 187.35343757 28.88181902 187.35986662 29.95169926 C187.37577488 33.41857415 187.36320029 36.88474387 187.3506012 40.35162354 C187.35602325 42.8422588 187.36314637 45.33289086 187.37184143 47.82351685 C187.38817608 53.87849917 187.385801 59.9332065 187.37419087 65.98817801 C187.36514423 70.91070415 187.36393785 75.83317472 187.36828613 80.75570679 C187.36889906 81.45725484 187.369512 82.15880289 187.3701435 82.88160998 C187.37142245 84.30694987 187.3727193 85.73228975 187.37403387 87.15762961 C187.38543034 100.51190793 187.37234065 113.86607628 187.3508324 127.22033656 C187.33296224 138.67007842 187.33606661 150.11965804 187.35450745 161.56939697 C187.37593069 174.87704227 187.3843318 188.18459126 187.37205839 201.4922514 C187.37078424 202.91224351 187.36952676 204.33223564 187.36828613 205.75222778 C187.36736048 206.8001254 187.36736048 206.8001254 187.36641613 207.86919266 C187.36296758 212.7837802 187.36878086 217.69830647 187.37820435 222.61288452 C187.39061735 229.23184233 187.38173482 235.85054161 187.35862732 242.46948624 C187.3533408 244.89786394 187.35485297 247.32626744 187.36367798 249.75463486 C187.37461868 253.07108445 187.36088625 256.3865546 187.34095764 259.70294189 C187.34988053 260.66248307 187.35880342 261.62202425 187.36799669 262.61064243 C187.28068191 270.1089341 185.32366894 275.20984455 180.58302307 281.00396729 C171.84144515 288.1561674 163.63909784 287.82834519 152.89552307 287.77154541 C151.1733491 287.77697091 149.45117976 287.78409597 147.72901917 287.79278564 C143.0678309 287.81097106 138.40699806 287.80397129 133.74580383 287.7912693 C128.85950284 287.78111681 123.97323155 287.79054122 119.08692932 287.79681396 C110.88244687 287.80408382 102.67810861 287.79452003 94.47364807 287.77545166 C84.99866174 287.7536842 75.52401974 287.76073604 66.04904175 287.78275728 C57.90272075 287.80093013 49.75650319 287.80346039 41.61016846 287.79300261 C36.74966287 287.78677804 31.88931895 287.78590347 27.02882385 287.79914856 C22.45844974 287.81073389 17.88851803 287.80263247 13.31819153 287.77957153 C11.64449293 287.77429875 9.97075688 287.77577366 8.29707336 287.78462219 C-8.57813038 287.86558919 -8.57813038 287.86558919 -16.15525818 281.61334229 C-16.59225037 281.08224854 -17.02924255 280.55115479 -17.47947693 280.00396729 C-17.92935974 279.48318604 -18.37924255 278.96240479 -18.84275818 278.42584229 C-22.97034465 271.65611344 -23.60373435 265.55702102 -23.55465698 257.8168335 C-23.56004252 256.79067098 -23.56542806 255.76450847 -23.57097679 254.70725012 C-23.58524044 251.28194395 -23.57815643 247.85702509 -23.57102966 244.43170166 C-23.57673399 241.97062368 -23.58369849 239.50954834 -23.59182739 237.04847717 C-23.60790389 231.06573239 -23.60986121 225.08313878 -23.60461449 219.10038722 C-23.600567 214.23650526 -23.60202321 209.37265429 -23.60736275 204.5087738 C-23.60811117 203.81555184 -23.60885959 203.12232987 -23.60963069 202.40810117 C-23.61116222 200.99967229 -23.61270057 199.59124341 -23.61424566 198.18281454 C-23.62796049 184.98736402 -23.62253985 171.79197286 -23.61106045 158.5965237 C-23.6011259 146.5326062 -23.61407432 134.46884203 -23.63799464 122.40494817 C-23.66239314 110.00614426 -23.67199187 97.60741174 -23.66534191 85.20858431 C-23.66185177 78.25216492 -23.66406834 71.29586348 -23.68159294 64.33946228 C-23.69786519 57.79931068 -23.69312168 51.25940431 -23.6742878 44.719244 C-23.67059829 42.31988774 -23.67372084 39.92050981 -23.68417358 37.52117348 C-23.69735953 34.24414413 -23.68585613 30.96808858 -23.66818237 27.69110107 C-23.67778738 26.74323274 -23.68739239 25.79536441 -23.69728845 24.81877279 C-23.61841694 17.70393466 -21.94812109 12.37189063 -17.16697693 7.01177979 C-16.50697693 6.47295166 -15.84697693 5.93412354 -15.16697693 5.37896729 C-14.50697693 4.82467041 -13.84697693 4.27037354 -13.16697693 3.69927979 C-8.68702759 0.46181639 -5.58292825 0.00325063 0 0 Z " fill="#2F4A62" transform="translate(430.16697692871094,378.74603271484375)"/>
<path d="M0 0 C1.45714994 -0.0049005 2.914296 -0.01109562 4.37143558 -0.01845789 C8.3396684 -0.0347343 12.30770096 -0.03256481 16.27595532 -0.02708292 C20.56997064 -0.02439733 24.8639344 -0.03897322 29.15792847 -0.05117798 C37.55768147 -0.07217164 45.95736536 -0.07677625 54.3571415 -0.07499009 C61.19114581 -0.07367913 68.02512868 -0.07750364 74.85912895 -0.08491516 C76.83257752 -0.08701452 78.8060261 -0.08911212 80.77947468 -0.09120798 C81.76193564 -0.09225151 82.7443966 -0.09329504 83.7566291 -0.09437019 C102.31416445 -0.11324893 120.87166021 -0.11222995 139.42920118 -0.10540086 C156.37015804 -0.09983013 173.31096346 -0.12063501 190.25188494 -0.15376133 C207.68171735 -0.18757678 225.11147737 -0.2026567 242.54134315 -0.1980443 C252.31276992 -0.19580715 262.08405682 -0.20093141 271.8554554 -0.22593689 C280.17697768 -0.24705203 288.49828344 -0.25044173 296.81981493 -0.2316373 C301.05736055 -0.22254102 305.29450361 -0.22114608 309.53201675 -0.24199295 C338.50089696 -0.37480766 362.78154126 2.23972653 385.13206482 22.39440918 C385.88745544 23.0569873 386.64284607 23.71956543 387.42112732 24.40222168 C397.17416037 33.48494318 403.669017 44.91938396 408.13206482 57.39440918 C408.62899841 58.74019043 408.62899841 58.74019043 409.13597107 60.11315918 C411.95512702 69.39979053 412.42319817 78.24609045 412.39949036 87.91503906 C412.40323259 89.37102286 412.40783639 90.82700465 412.413221 92.2829833 C412.42539607 96.2618192 412.42519704 100.24057066 412.42283225 104.21942091 C412.42242268 108.51957447 412.43347676 112.81970147 412.44294739 117.11984253 C412.45952928 125.53737223 412.4650557 133.95487391 412.46617214 142.37241858 C412.46712416 149.21985597 412.47124211 156.06728415 412.47757339 162.91471863 C412.49517982 182.35394494 412.50441346 201.79314921 412.50291245 221.23238355 C412.50283253 222.27939693 412.50275262 223.32641031 412.50267029 224.40515137 C412.50258853 225.45345239 412.50250677 226.50175342 412.50242253 227.58182114 C412.50161028 244.55662841 412.52073406 261.5313468 412.54894702 278.50612837 C412.57772703 295.96070973 412.59148444 313.41524783 412.58975947 330.8698535 C412.58909723 340.65912855 412.59451623 350.44831049 412.61611557 360.23756409 C412.63439504 368.5752915 412.63861962 376.9128836 412.62509672 385.25062245 C412.61860042 389.49797549 412.61832767 393.74506948 412.63580322 397.99239731 C412.79305545 438.74166527 412.79305545 438.74166527 404.38206482 453.83190918 C404.0369989 454.48183838 403.69193298 455.13176758 403.33641052 455.8013916 C395.43012457 470.32706066 384.64737276 482.31953948 370.13206482 490.39440918 C369.10854919 491.00155762 368.08503357 491.60870605 367.03050232 492.23425293 C347.65945416 502.96318241 325.83903393 501.99386967 304.34480095 501.94662595 C300.08020645 501.9416352 295.815695 501.95978827 291.5511322 501.97470093 C283.22384355 502.00004222 274.89668432 502.00380179 266.56936359 501.9991004 C259.79463588 501.99551752 253.01994708 501.99906851 246.245224 502.00754929 C245.2767811 502.00873966 244.3083382 502.00993004 243.31054854 502.01115649 C241.34246985 502.01358027 239.37439115 502.01600854 237.40631247 502.01844124 C219.00134013 502.04013222 200.59644131 502.03589506 182.1914649 502.02367155 C165.39318634 502.01333139 148.59513966 502.03585948 131.79690695 502.07386799 C114.49792549 502.11270602 97.19905353 502.12912305 79.90002823 502.12162149 C70.20804959 502.1178106 60.51626837 502.12264396 50.82432556 502.15105057 C42.57613293 502.17498379 34.32825937 502.1775704 26.08006191 502.15347023 C21.88088526 502.14176762 17.68229069 502.13928185 13.4831543 502.16347504 C-15.60974191 502.31953481 -41.18014564 498.34539051 -62.86793518 477.39440918 C-79.81660927 459.46963345 -87.36688284 435.80881195 -87.25561523 411.50665283 C-87.25979925 410.05958942 -87.26528257 408.6125293 -87.27193505 407.16547513 C-87.28626878 403.22983787 -87.28218318 399.29441218 -87.27476823 395.35876393 C-87.27000857 391.09821106 -87.28257107 386.83770215 -87.29278564 382.5771637 C-87.30992526 374.24572478 -87.31082363 365.91436145 -87.30557274 357.58290949 C-87.30152029 350.80564417 -87.30298734 344.02840106 -87.308321 337.25113678 C-87.30906942 336.28407886 -87.30981784 335.31702093 -87.31058894 334.32065822 C-87.31212053 332.35563586 -87.31365888 330.3906135 -87.31520391 328.42559114 C-87.32891179 310.02405279 -87.32350362 291.62255702 -87.3120187 273.22101966 C-87.30209108 256.41782543 -87.31502192 239.61474141 -87.33895289 222.81156418 C-87.36338651 205.5240929 -87.37294112 188.23667285 -87.36630017 170.94918466 C-87.36281703 161.25722566 -87.36497982 151.56535132 -87.38255119 141.87340546 C-87.39732671 133.62177216 -87.39783925 125.37028313 -87.38048028 117.11865249 C-87.37201118 112.91583192 -87.36971943 108.71326847 -87.38513184 104.51046181 C-87.49327928 72.74246353 -84.21896359 47.11806038 -60.86793518 23.39440918 C-44.35037514 6.84272195 -22.91659392 -0.09670869 0 0 Z M-49.86793518 32.39440918 C-50.88113831 33.23938965 -50.88113831 33.23938965 -51.91481018 34.10144043 C-62.83108977 43.99118914 -69.82199351 58.9987143 -71.86793518 73.39440918 C-71.95788216 75.47742767 -72.00041027 77.56283245 -72.00494957 79.64778709 C-72.01002411 80.88995503 -72.01509866 82.13212296 -72.02032697 83.41193235 C-72.02092855 84.78242385 -72.02142767 86.15291541 -72.02183533 87.52340698 C-72.02585323 88.98561234 -72.03029199 90.44781659 -72.03511488 91.91001952 C-72.0470499 95.9245331 -72.05272169 99.93903467 -72.05729604 103.9535625 C-72.06326387 108.28509984 -72.0748708 112.61662293 -72.08558655 116.94815063 C-72.11008435 127.40780805 -72.12473428 137.86747017 -72.13764662 148.32714742 C-72.1413606 151.28322835 -72.14533366 154.23930881 -72.14939928 157.19538927 C-72.17463892 175.56629181 -72.19668426 193.93719514 -72.20912743 212.30811119 C-72.21205695 216.56132383 -72.21501864 220.81453644 -72.21803284 225.06774902 C-72.21877889 226.12481791 -72.21952494 227.18188679 -72.2202936 228.27098806 C-72.232939 245.38321053 -72.26615268 262.4953289 -72.30783467 279.60750274 C-72.35031172 297.19076359 -72.37382915 314.77397123 -72.37904799 332.35728323 C-72.38245565 342.22371702 -72.39413462 352.08998816 -72.42715073 361.95637131 C-72.45523183 370.36160246 -72.46611533 378.76663759 -72.45495526 387.171912 C-72.4497891 391.45550623 -72.45252131 395.73869049 -72.47742081 400.02222443 C-72.50008672 403.95458307 -72.49904115 407.88624138 -72.48021694 411.81861372 C-72.47744095 413.23056333 -72.48287951 414.64256222 -72.49802987 416.05443327 C-72.68767398 434.9013376 -66.09575074 452.52649278 -53.05909729 466.28234863 C-44.35123737 475.12703573 -34.62956265 482.68542988 -21.86793518 483.39440918 C-21.86793518 484.05440918 -21.86793518 484.71440918 -21.86793518 485.39440918 C-14.45195685 486.56718563 -7.10300505 486.53728324 0.39009094 486.52812195 C1.84179879 486.52999195 3.29350613 486.53229341 4.74521267 486.53498727 C8.72119151 486.54108814 12.69714926 486.5409737 16.6731317 486.5397929 C20.96634096 486.53958846 25.25954352 486.5451117 29.55274963 486.54985046 C37.95850763 486.55814785 46.36425861 486.56090488 54.77002035 486.56146284 C61.60326923 486.56193837 68.4365158 486.56399497 75.26976395 486.56716347 C94.6506533 486.57596705 114.03153712 486.58058323 133.41242848 486.57983299 C134.45670047 486.57979304 135.50097245 486.57975308 136.57688904 486.57971191 C137.62243832 486.57967103 138.6679876 486.57963015 139.7452202 486.57958803 C156.69319786 486.5791815 173.64115331 486.58875359 190.58912455 486.60285028 C207.99839873 486.61721624 225.40766208 486.62412036 242.81694233 486.6232565 C252.58807827 486.62292464 262.35919091 486.6256671 272.1303215 486.63643456 C280.44853239 486.64554237 288.76670942 486.64771243 297.08492313 486.64092513 C301.32714949 486.63766155 305.5693109 486.63759747 309.81153107 486.64627838 C313.6988966 486.65415123 317.58614577 486.65270396 321.47350849 486.64399425 C322.87586114 486.64246101 324.2782225 486.64426877 325.68056487 486.64985432 C337.46069533 486.69364789 347.40460174 485.32412885 358.13206482 480.39440918 C359.00733826 479.99608887 359.88261169 479.59776855 360.78440857 479.18737793 C372.30856434 473.45010095 381.5959294 464.45039146 388.13206482 453.39440918 C388.66444763 452.50495605 389.19683044 451.61550293 389.74534607 450.69909668 C399.64599455 432.66665006 398.71875242 413.15167988 398.65496349 393.23487794 C398.64583075 389.00917506 398.659923 384.78353586 398.67088318 380.55784607 C398.68858563 372.30165916 398.68486569 364.04561845 398.67323261 355.78942602 C398.6641664 349.07466324 398.66298802 342.35994118 398.66732788 335.64517403 C398.66824728 334.2068198 398.66824728 334.2068198 398.66918525 332.73940792 C398.67046426 330.79088968 398.67176112 328.84237146 398.67307562 326.89385325 C398.68445701 308.66164248 398.6714058 290.4295124 398.64987415 272.19731487 C398.63200253 256.5812506 398.63511256 240.96530529 398.65354919 225.34924316 C398.67499419 207.17677482 398.68336161 189.00437703 398.67110014 170.8318978 C398.66982606 168.89120806 398.66856857 166.95051832 398.66732788 165.00982857 C398.66671078 164.05518438 398.66609368 163.10054019 398.66545787 162.11696739 C398.66201606 155.41618151 398.66780794 148.71544069 398.67724609 142.01466179 C398.68850777 133.8402574 398.68533879 125.6660065 398.66412312 117.49161952 C398.65366892 113.32751047 398.64939372 109.16365657 398.66271973 104.99954987 C398.67476742 101.17685679 398.66788112 97.35465185 398.64680952 93.53200216 C398.64032777 91.51756672 398.6531678 89.50309653 398.66703844 87.48869842 C398.56399781 75.30285938 396.21284404 62.87664855 390.44456482 52.01940918 C390.10352722 51.36005371 389.76248962 50.70069824 389.41111755 50.0213623 C386.15768354 43.99139883 382.08040432 39.12945818 377.13206482 34.39440918 C376.10339294 33.3367334 376.10339294 33.3367334 375.05393982 32.25769043 C361.649744 19.22583339 342.36979548 13.59582573 324.11491394 13.77967834 C322.66612076 13.77605487 321.21733173 13.77023994 319.76855493 13.76245636 C315.83289293 13.74755397 311.89789299 13.76338754 307.96228361 13.78476298 C303.70052347 13.80237744 299.43882348 13.7908515 295.17704773 13.78309631 C286.84734957 13.77246595 278.51790586 13.7883045 270.18824646 13.81323458 C260.47763655 13.84126332 250.76707711 13.8425079 241.05643347 13.84267759 C223.72709751 13.84386292 206.39787788 13.86877845 189.06858826 13.90734863 C172.27039698 13.94471226 155.47229025 13.96594614 138.67405701 13.96887207 C137.63876884 13.96905488 136.60348068 13.96923769 135.53682014 13.96942604 C134.50328251 13.96960501 133.46974487 13.96978398 132.40488791 13.96996838 C130.32370106 13.97033381 128.24251421 13.97070618 126.16132736 13.97108555 C125.13484376 13.97127106 124.10836015 13.97145658 123.05077098 13.97164771 C107.01444055 13.97522126 90.97812309 13.99367214 74.94180588 14.01357879 C69.13944247 14.02058916 63.33708212 14.02537886 57.53471538 14.02854014 C48.33259905 14.03359771 39.13054132 14.04507546 29.92845508 14.06984044 C25.72657157 14.08102955 21.52474527 14.08917869 17.32284546 14.08870697 C13.47146466 14.08839703 9.62021893 14.09741216 5.76887348 14.11367499 C3.72679805 14.11999006 1.68469972 14.11667354 -0.35738206 14.11293608 C-19.96767896 14.22541692 -35.13313287 19.61464349 -49.86793518 32.39440918 Z " fill="#34506B" transform="translate(348.86793518066406,265.6055908203125)"/>
<path d="M0 0 C4.41074704 -0.09961729 8.82088095 -0.17181669 13.23242188 -0.21972656 C14.7299339 -0.23971919 16.22736908 -0.26692299 17.72460938 -0.30175781 C28.6731508 -0.54992475 36.5905307 0.0710718 45 8 C49.80346963 14.76043874 50.29431563 21.24517949 50.27415466 29.26582336 C50.27939134 30.29773857 50.28462802 31.32965377 50.29002339 32.39283913 C50.30502153 35.84957849 50.30572851 39.3061698 50.30639648 42.76293945 C50.31401804 45.24180349 50.32244553 47.72066515 50.33161926 50.19952393 C50.35357048 56.93304007 50.36238585 63.66649671 50.36744571 70.40003991 C50.37070642 74.60698619 50.3772311 78.81392336 50.3844471 83.02086449 C50.40400733 94.67650335 50.42041528 106.33213377 50.42332363 117.98779011 C50.4235112 118.73312097 50.42369877 119.47845183 50.42389202 120.24636848 C50.42425827 121.75722198 50.42462197 123.26807547 50.42498314 124.77892897 C50.42516595 125.52888192 50.42534876 126.27883487 50.42553711 127.05151367 C50.42580793 128.17782127 50.42580793 128.17782127 50.42608423 129.32688256 C50.42962591 141.49373653 50.45665044 153.66041352 50.494035 165.82720611 C50.53213986 178.32877619 50.55148126 190.83025848 50.55178314 203.3318879 C50.55236717 210.34709803 50.56082415 217.36209692 50.58978081 224.37725258 C50.61689285 230.97567204 50.61818105 237.57374646 50.60212517 244.17222595 C50.60030863 246.59213357 50.60701973 249.0120651 50.62294388 251.43192101 C50.64338067 254.73951762 50.63286502 258.0456475 50.61473083 261.35322571 C50.6279308 262.30732734 50.64113077 263.26142896 50.65473074 264.24444276 C50.56163325 271.69579546 48.40472098 277.459878 43.18599504 282.88614541 C37.82576621 287.81831625 33.19666656 289.24798724 25.8848114 289.26742554 C24.82718817 289.27422221 24.82718817 289.27422221 23.74819881 289.28115618 C21.39155437 289.29379079 19.03514131 289.29218044 16.6784668 289.29052734 C14.98629459 289.29651322 13.29412512 289.3033189 11.60195923 289.31088257 C7.00887482 289.32854452 2.41586494 289.33323805 -2.17725015 289.33451414 C-5.04829638 289.33593627 -7.91932369 289.34020705 -10.79036522 289.34550858 C-20.81069516 289.36401 -30.8309719 289.37217911 -40.85131836 289.37060547 C-50.18477988 289.36940427 -59.51801008 289.39050213 -68.85141307 289.4220928 C-76.87026725 289.44826478 -84.88904592 289.45897237 -92.90794247 289.45769465 C-97.69474145 289.45718526 -102.48133485 289.46285581 -107.2680912 289.48405075 C-111.77190837 289.50344849 -116.27532422 289.50354716 -120.77915573 289.48901749 C-122.42867686 289.48693014 -124.07822321 289.49162588 -125.72770119 289.5037384 C-142.72736049 289.62044891 -142.72736049 289.62044891 -150.2421875 283.03515625 C-150.78101563 282.38417969 -151.31984375 281.73320313 -151.875 281.0625 C-152.42929687 280.41410156 -152.98359375 279.76570313 -153.5546875 279.09765625 C-157.14815964 273.8822656 -157.25845815 269.31117587 -157.125 263.1875 C-157.11597656 262.39923828 -157.10695313 261.61097656 -157.09765625 260.79882812 C-157.07422504 258.86575334 -157.03835838 256.9328362 -157 255 C-156.32984706 254.99853344 -155.65969412 254.99706688 -154.96923351 254.99555588 C-138.62533337 254.95842365 -122.28167294 254.8993244 -105.93794537 254.81609726 C-98.03406646 254.77637216 -90.13028618 254.74394666 -82.22631836 254.72900391 C-75.33320669 254.71595337 -68.44031261 254.68890257 -61.54732352 254.64538693 C-57.9011159 254.62284803 -54.2551759 254.60708473 -50.60889244 254.60811615 C-46.52761249 254.60900728 -42.44711579 254.57862696 -38.3659668 254.54589844 C-37.17121735 254.5509288 -35.9764679 254.55595917 -34.74551392 254.56114197 C-26.11099589 254.45443427 -17.74787131 253.05329727 -10.625 247.8125 C-3.25540252 239.9165027 -0.698209 231.12201014 -0.7215271 220.54678345 C-0.7128385 219.13026806 -0.7128385 219.13026806 -0.70397437 217.6851362 C-0.68698806 214.52524486 -0.68409901 211.36549969 -0.68115234 208.20556641 C-0.67185324 205.93869672 -0.66168459 203.67183046 -0.65071106 201.40496826 C-0.62339513 195.25263448 -0.60825686 189.10032362 -0.59528303 182.94794512 C-0.57965953 176.51770936 -0.5528668 170.08752044 -0.5272522 163.65731812 C-0.48576903 152.86514533 -0.45117854 142.07297371 -0.421875 131.28076172 C-0.39167719 120.16615966 -0.35732127 109.05158323 -0.31738281 97.93701172 C-0.31492126 97.25157908 -0.31245972 96.56614643 -0.30992357 95.85994311 C-0.29754873 92.42123028 -0.28509225 88.98251775 -0.27259517 85.54380536 C-0.1690722 57.02923945 -0.0800012 28.51464094 0 0 Z " fill="#D86A4B" transform="translate(627,421)"/>
<path d="M0 0 C4.81231129 0.65420822 7.78190694 3.00903782 11.640625 5.8359375 C12.71957031 6.59777344 12.71957031 6.59777344 13.8203125 7.375 C16.51733799 9.29423162 19.04637694 11.11668944 21.390625 13.4609375 C22.21357559 20.62662921 18.30731182 24.83961977 14.390625 30.4609375 C13.62105469 31.69263672 13.62105469 31.69263672 12.8359375 32.94921875 C11.46888552 35.0293546 10.23489963 36.78898146 8.390625 38.4609375 C4.640625 39.0859375 4.640625 39.0859375 1.390625 38.4609375 C-0.609375 36.4609375 -0.609375 36.4609375 -0.859375 33.0234375 C-0.609375 29.4609375 -0.609375 29.4609375 1.390625 26.4609375 C-13.26965093 30.04802629 -25.73285877 36.01284631 -37.609375 45.4609375 C-38.29257812 45.97914063 -38.97578125 46.49734375 -39.6796875 47.03125 C-55.52711507 59.79901553 -67.12586188 80.29834483 -69.609375 100.4609375 C-70.86312761 119.67910588 -70.86312761 119.67910588 -67.609375 138.4609375 C-67.42117188 139.26660156 -67.23296875 140.07226562 -67.0390625 140.90234375 C-63.77912392 153.36816522 -56.78163387 163.88586951 -48.515625 173.55859375 C-46.33079446 176.8850878 -46.11553329 178.56014288 -46.609375 182.4609375 C-47.671875 184.3359375 -47.671875 184.3359375 -49.609375 185.4609375 C-52.92578125 185.84375 -52.92578125 185.84375 -56.609375 185.4609375 C-71.2456223 173.64451766 -81.12159277 149.58056681 -83.609375 131.4609375 C-85.11728997 101.69104044 -81.8406679 73.97981549 -61.609375 50.4609375 C-60.908125 49.63851562 -60.206875 48.81609375 -59.484375 47.96875 C-43.78908559 30.03906175 -24.8607292 18.47709259 -1.609375 13.4609375 C-2.34220703 12.32205078 -2.34220703 12.32205078 -3.08984375 11.16015625 C-4.88683117 7.96807833 -5.01047518 6.07083908 -4.609375 2.4609375 C-2.609375 0.4609375 -2.609375 0.4609375 0 0 Z " fill="#304E6B" transform="translate(426.609375,312.5390625)"/>
<path d="M0 0 C0.99 1.32 1.98 2.64 3 4 C2.04367001 5.29315061 1.08486149 6.58446853 0.125 7.875 C-0.40867187 8.59429688 -0.94234375 9.31359375 -1.4921875 10.0546875 C-3 12 -3 12 -5 14 C-5.99 14 -6.98 14 -8 14 C-6.46162154 10.80375738 -4.71133468 7.78394426 -2.875 4.75 C-2.33617187 3.85796875 -1.79734375 2.9659375 -1.2421875 2.046875 C-0.62730469 1.03367187 -0.62730469 1.03367187 0 0 Z " fill="#3B5C76" transform="translate(738,715)"/>
<path d="M0 0 C0.66 0.33 1.32 0.66 2 1 C-3.61 6.61 -9.22 12.22 -15 18 C-15.66 17.67 -16.32 17.34 -17 17 C-15.29657414 15.09955869 -13.58752883 13.20471126 -11.875 11.3125 C-11.400625 10.78205078 -10.92625 10.25160156 -10.4375 9.70507812 C-7.18500869 6.12294242 -3.77952775 3.02250068 0 0 Z " fill="#D6DDE0" transform="translate(391,355)"/>
<path d="M0 0 C0.66 0.33 1.32 0.66 2 1 C0.60667426 4.36720387 -0.9789286 5.9859524 -4 8 C-3.40072174 4.64404172 -2.15377564 2.62198774 0 0 Z " fill="#3E5E7D" transform="translate(741,733)"/>
<path d="M0 0 C0.66 0.33 1.32 0.66 2 1 C-0.31 2.32 -2.62 3.64 -5 5 C-5.66 4.34 -6.32 3.68 -7 3 C-4.69631264 1.93347808 -2.35981813 0.93578995 0 0 Z " fill="#5A7588" transform="translate(318,270)"/>
<path d="M0 0 C-3.06246747 1.78409802 -5.22079273 2.22880021 -8.75 2.125 C-9.54921875 2.10695313 -10.3484375 2.08890625 -11.171875 2.0703125 C-11.77515625 2.04710937 -12.3784375 2.02390625 -13 2 C-8.7920942 -0.80527053 -4.85771358 -1.68151624 0 0 Z " fill="#687F91" transform="translate(334,268)"/>
</svg>
